# Blender 3.6.4
# www.blender.org
mtllib grass.mtl
o Plane
v -16.000000 16.000000 0.005551
v -16.000000 -16.000000 -0.055676
v 16.000000 16.000000 -0.267268
v 16.000000 -16.000000 -0.054406
v 12.000000 16.000000 -0.103704
v 8.000000 16.000000 -0.086952
v 4.000000 16.000000 -0.066563
v 0.000000 16.000000 -0.170977
v -4.000000 16.000000 -0.104034
v -8.000000 16.000000 -0.161971
v -12.000000 16.000000 -0.107551
v -16.000000 12.000000 -0.132872
v -16.000000 8.000000 -0.080865
v -16.000000 4.000000 -0.175231
v -16.000000 0.000000 -0.157462
v -16.000000 -4.000000 -0.039532
v -16.000000 -8.000000 -0.139779
v -16.000000 -12.000000 -0.061258
v -12.000000 -16.000000 -0.066518
v -8.000000 -16.000000 -0.176692
v -4.000000 -16.000000 -0.153955
v 0.000000 -16.000000 -0.218325
v 4.000000 -16.000000 -0.064257
v 8.000000 -16.000000 -0.070194
v 12.000000 -16.000000 -0.266577
v 16.000000 -12.000000 -0.109480
v 16.000000 -8.000000 0.067565
v 16.000000 -4.000000 -0.133377
v 16.000000 0.000000 -0.186595
v 16.000000 4.000000 -0.125604
v 16.000000 8.000000 -0.068575
v 16.000000 12.000000 -0.156104
v -12.000000 -12.000000 -0.196295
v -12.000000 -8.000000 -0.203888
v -12.000000 -4.000000 -0.126781
v -12.000000 0.000000 -0.300157
v -12.000000 4.000000 -0.183690
v -12.000000 8.000000 -0.079688
v -12.000000 12.000000 -0.125630
v -8.000000 -12.000000 -0.127639
v -8.000000 -8.000000 -0.041714
v -8.000000 -4.000000 -0.025490
v -8.000000 0.000000 -0.088932
v -8.000000 4.000000 -0.068873
v -8.000000 8.000000 -0.004296
v -8.000000 12.000000 -0.086728
v -4.000000 -12.000000 -0.116453
v -4.000000 -8.000000 -0.097074
v -4.000000 -4.000000 -0.207664
v -4.000000 0.000000 -0.026309
v -4.000000 4.000000 -0.117662
v -4.000000 8.000000 -0.300368
v -4.000000 12.000000 0.125000
v 0.000000 -12.000000 -0.112273
v 0.000000 -8.000000 -0.218227
v 0.000000 -4.000000 0.072517
v 0.000000 0.000000 -0.167342
v 0.000000 4.000000 -0.040569
v 0.000000 8.000000 -0.091321
v 0.000000 12.000000 -0.286662
v 4.000000 -12.000000 -0.172614
v 4.000000 -8.000000 -0.148448
v 4.000000 -4.000000 -0.037437
v 4.000000 0.000000 -0.212927
v 4.000000 4.000000 -0.082252
v 4.000000 8.000000 -0.167089
v 4.000000 12.000000 -0.238530
v 8.000000 -12.000000 -0.078503
v 8.000000 -8.000000 -0.131810
v 8.000000 -4.000000 -0.099338
v 8.000000 0.000000 -0.157968
v 8.000000 4.000000 -0.151026
v 8.000000 8.000000 0.018515
v 8.000000 12.000000 -0.088329
v 12.000000 -12.000000 -0.026191
v 12.000000 -8.000000 -0.033773
v 12.000000 -4.000000 -0.152360
v 12.000000 0.000000 -0.094418
v 12.000000 4.000000 -0.150597
v 12.000000 8.000000 -0.121085
v 12.000000 12.000000 -0.193371
vn 0.0023 0.0113 0.9999
vn 0.0155 -0.0044 0.9999
vn 0.0085 -0.0022 1.0000
vn 0.0057 -0.0033 1.0000
vn 0.0076 -0.0062 1.0000
vn 0.0282 -0.0346 0.9990
vn -0.0247 0.0204 0.9995
vn -0.0056 0.0037 1.0000
vn 0.0131 0.0261 0.9996
vn -0.0004 0.0188 0.9998
vn 0.0191 -0.0025 0.9998
vn 0.0405 -0.0084 0.9991
vn -0.0265 -0.0108 0.9996
vn -0.0012 -0.0324 0.9995
vn -0.0031 0.0029 1.0000
vn -0.0211 -0.0323 0.9993
vn 0.0046 -0.0003 1.0000
vn 0.0229 0.0247 0.9994
vn 0.0260 0.0183 0.9995
vn 0.0027 0.0014 1.0000
vn 0.0117 0.0138 0.9998
vn 0.0219 -0.0057 0.9997
vn -0.0061 0.0080 0.9999
vn 0.0218 0.0022 0.9998
vn 0.0238 0.0120 0.9996
vn -0.0121 -0.0203 0.9997
vn 0.0015 -0.0102 0.9999
vn -0.0094 -0.0046 0.9999
vn -0.0007 -0.0057 1.0000
vn -0.0002 -0.0011 1.0000
vn -0.0112 -0.0115 0.9999
vn -0.0093 -0.0116 0.9999
vn -0.0114 -0.0147 0.9998
vn -0.0243 0.0093 0.9997
vn -0.0085 0.0071 0.9999
vn -0.0070 -0.0118 0.9999
vn 0.0016 -0.0144 0.9999
vn 0.0200 0.0093 0.9998
vn -0.0015 0.0022 1.0000
vn 0.0106 -0.0104 0.9999
vn -0.0034 0.0189 0.9998
vn 0.0040 -0.0059 1.0000
vn 0.0090 -0.0059 0.9999
vn -0.0019 -0.0071 1.0000
vn -0.0005 -0.0049 1.0000
vn 0.0134 -0.0082 0.9999
vn 0.0120 -0.0012 0.9999
vn 0.0024 -0.0027 1.0000
vn -0.0136 0.0359 0.9993
vn 0.0301 -0.0107 0.9995
vn 0.0022 -0.0131 0.9999
vn -0.0085 0.0062 0.9999
vn -0.0043 -0.0104 0.9999
vn 0.0139 0.0044 0.9999
vn -0.0212 -0.0063 0.9998
vn 0.0150 -0.0067 0.9999
vn -0.0085 0.0166 0.9998
vn -0.0247 0.0208 0.9995
vn -0.0166 0.0094 0.9998
vn -0.0120 0.0049 0.9999
vn 0.0083 0.0045 1.0000
vn 0.0063 0.0058 1.0000
vn 0.0011 -0.0136 0.9999
vn 0.0097 -0.0135 0.9999
vn 0.0024 -0.0121 0.9999
vn -0.0151 0.0140 0.9998
vn -0.0006 0.0100 1.0000
vn -0.0092 0.0048 0.9999
vn -0.0052 0.0014 1.0000
vn 0.0068 0.0017 1.0000
vn -0.0057 -0.0078 1.0000
vn -0.0161 -0.0231 0.9996
vn -0.0020 -0.0600 0.9982
vn 0.0093 -0.0037 1.0000
vn -0.0099 0.0266 0.9996
vn 0.0161 -0.0079 0.9998
vn -0.0001 -0.0039 1.0000
vn -0.0006 -0.0057 1.0000
vn 0.0408 0.0278 0.9988
vn -0.0253 0.0030 0.9997
vn -0.0131 0.0038 0.9999
vt 0.125000 1.000000
vt 0.000000 0.875000
vt 0.125000 0.875000
vt 0.125000 0.000000
vt 0.000000 0.125000
vt 0.000000 0.000000
vt 0.125000 0.250000
vt 0.125000 0.125000
vt 0.000000 0.375000
vt 0.000000 0.250000
vt 0.125000 0.500000
vt 0.125000 0.375000
vt 0.125000 0.625000
vt 0.000000 0.500000
vt 0.125000 0.750000
vt 0.000000 0.625000
vt 0.000000 0.750000
vt 1.000000 0.125000
vt 0.875000 0.000000
vt 1.000000 0.000000
vt 0.875000 0.125000
vt 0.750000 0.000000
vt 0.625000 0.125000
vt 0.625000 0.000000
vt 0.500000 0.000000
vt 0.375000 0.125000
vt 0.375000 0.000000
vt 0.250000 0.125000
vt 0.250000 0.000000
vt 1.000000 0.250000
vt 0.875000 0.250000
vt 0.750000 0.125000
vt 0.750000 0.250000
vt 0.500000 0.250000
vt 0.500000 0.125000
vt 0.375000 0.250000
vt 1.000000 0.375000
vt 0.750000 0.375000
vt 0.625000 0.250000
vt 0.500000 0.375000
vt 0.375000 0.375000
vt 0.250000 0.250000
vt 0.875000 0.500000
vt 0.875000 0.375000
vt 0.750000 0.500000
vt 0.625000 0.375000
vt 0.500000 0.500000
vt 0.375000 0.500000
vt 0.250000 0.500000
vt 0.250000 0.375000
vt 1.000000 0.500000
vt 0.875000 0.625000
vt 0.750000 0.625000
vt 0.625000 0.625000
vt 0.625000 0.500000
vt 0.375000 0.625000
vt 0.250000 0.625000
vt 1.000000 0.625000
vt 0.875000 0.750000
vt 0.750000 0.750000
vt 0.625000 0.750000
vt 0.500000 0.625000
vt 0.375000 0.750000
vt 1.000000 0.750000
vt 0.875000 0.875000
vt 0.750000 0.875000
vt 0.625000 0.875000
vt 0.500000 0.750000
vt 0.375000 0.875000
vt 0.250000 0.875000
vt 0.250000 0.750000
vt 1.000000 1.000000
vt 1.000000 0.875000
vt 0.875000 1.000000
vt 0.625000 1.000000
vt 0.500000 1.000000
vt 0.500000 0.875000
vt 0.375000 1.000000
vt 0.000000 1.000000
vt 0.750000 1.000000
vt 0.250000 1.000000
s 1
f 32/1/1 5/2/2 81/3/3
f 12/4/4 11/5/5 1/6/6
f 46/7/7 11/5/5 39/8/8
f 46/7/7 9/9/9 10/10/10
f 60/11/11 9/9/9 53/12/12
f 67/13/13 8/14/14 60/11/11
f 74/15/15 7/16/16 67/13/13
f 74/15/15 5/2/2 6/17/17
f 19/18/18 18/19/19 2/20/20
f 33/21/21 17/22/22 18/19/19
f 17/22/22 35/23/23 16/24/24
f 35/23/23 15/25/25 16/24/24
f 15/25/25 37/26/26 14/27/27
f 14/27/27 38/28/28 13/29/29
f 13/29/29 39/8/8 12/4/4
f 20/30/30 33/21/21 19/18/18
f 40/31/31 34/32/32 33/21/21
f 41/33/33 35/23/23 34/32/32
f 35/23/23 43/34/34 36/35/35
f 43/34/34 37/26/26 36/35/35
f 44/36/36 38/28/28 37/26/26
f 38/28/28 46/7/7 39/8/8
f 21/37/37 40/31/31 20/30/30
f 40/31/31 48/38/38 41/33/33
f 48/38/38 42/39/39 41/33/33
f 42/39/39 50/40/40 43/34/34
f 43/34/34 51/41/41 44/36/36
f 51/41/41 45/42/42 44/36/36
f 45/42/42 53/12/12 46/7/7
f 21/37/37 54/43/43 47/44/44
f 54/43/43 48/38/38 47/44/44
f 55/45/45 49/46/46 48/38/38
f 49/46/46 57/47/47 50/40/40
f 50/40/40 58/48/48 51/41/41
f 51/41/41 59/49/49 52/50/50
f 52/50/50 60/11/11 53/12/12
f 22/51/51 61/52/52 54/43/43
f 54/43/43 62/53/53 55/45/45
f 55/45/45 63/54/54 56/55/55
f 63/54/54 57/47/47 56/55/55
f 57/47/47 65/56/56 58/48/48
f 65/56/56 59/49/49 58/48/48
f 66/57/57 60/11/11 59/49/49
f 23/58/58 68/59/59 61/52/52
f 61/52/52 69/60/60 62/53/53
f 62/53/53 70/61/61 63/54/54
f 70/61/61 64/62/62 63/54/54
f 64/62/62 72/63/63 65/56/56
f 72/63/63 66/57/57 65/56/56
f 66/57/57 74/15/15 67/13/13
f 24/64/64 75/65/65 68/59/59
f 68/59/59 76/66/66 69/60/60
f 69/60/60 77/67/67 70/61/61
f 77/67/67 71/68/68 70/61/61
f 71/68/68 79/69/69 72/63/63
f 72/63/63 80/70/70 73/71/71
f 80/70/70 74/15/15 73/71/71
f 4/72/72 75/65/65 25/73/73
f 26/74/74 76/66/66 75/65/65
f 76/66/66 28/75/75 77/67/67
f 77/67/67 29/76/76 78/77/77
f 78/77/77 30/78/78 79/69/69
f 30/78/78 80/70/70 79/69/69
f 80/70/70 32/1/1 81/3/3
f 32/1/1 3/79/79 5/2/2
f 12/4/4 39/8/8 11/5/5
f 46/7/7 10/10/10 11/5/5
f 46/7/7 53/12/12 9/9/9
f 60/11/11 8/14/14 9/9/9
f 67/13/13 7/16/16 8/14/14
f 74/15/15 6/17/17 7/16/16
f 74/15/15 81/3/3 5/2/2
f 19/18/18 33/21/21 18/19/19
f 33/21/21 34/32/32 17/22/22
f 17/22/22 34/32/32 35/23/23
f 35/23/23 36/35/35 15/25/25
f 15/25/25 36/35/35 37/26/26
f 14/27/27 37/26/26 38/28/28
f 13/29/29 38/28/28 39/8/8
f 20/30/30 40/31/31 33/21/21
f 40/31/31 41/33/33 34/32/32
f 41/33/33 42/39/39 35/23/23
f 35/23/23 42/39/39 43/34/34
f 43/34/34 44/36/36 37/26/26
f 44/36/36 45/42/42 38/28/28
f 38/28/28 45/42/42 46/7/7
f 21/37/37 47/44/44 40/31/31
f 40/31/31 47/44/44 48/38/38
f 48/38/38 49/46/46 42/39/39
f 42/39/39 49/46/46 50/40/40
f 43/34/34 50/40/40 51/41/41
f 51/41/41 52/50/50 45/42/42
f 45/42/42 52/50/50 53/12/12
f 21/37/37 22/51/51 54/43/43
f 54/43/43 55/45/45 48/38/38
f 55/45/45 56/55/55 49/46/46
f 49/46/46 56/55/55 57/47/47
f 50/40/40 57/47/47 58/48/48
f 51/41/41 58/48/48 59/49/49
f 52/50/50 59/49/49 60/11/11
f 22/51/51 23/58/58 61/52/52
f 54/43/43 61/52/52 62/53/53
f 55/45/45 62/53/53 63/54/54
f 63/54/54 64/62/62 57/47/47
f 57/47/47 64/62/62 65/56/56
f 65/56/56 66/57/57 59/49/49
f 66/57/57 67/13/13 60/11/11
f 23/58/58 24/64/64 68/59/59
f 61/52/52 68/59/59 69/60/60
f 62/53/53 69/60/60 70/61/61
f 70/61/61 71/68/68 64/62/62
f 64/62/62 71/68/68 72/63/63
f 72/63/63 73/71/71 66/57/57
f 66/57/57 73/71/71 74/15/15
f 24/64/64 25/73/73 75/65/65
f 68/59/59 75/65/65 76/66/66
f 69/60/60 76/66/66 77/67/67
f 77/67/67 78/77/77 71/68/68
f 71/68/68 78/77/77 79/69/69
f 72/63/63 79/69/69 80/70/70
f 80/70/70 81/3/3 74/15/15
f 4/72/72 26/74/74 75/65/65
f 26/74/74 27/80/80 76/66/66
f 76/66/66 27/80/80 28/75/75
f 77/67/67 28/75/75 29/76/76
f 78/77/77 29/76/76 30/78/78
f 30/78/78 31/81/81 80/70/70
f 80/70/70 31/81/81 32/1/1
