# Blender 3.6.4
# www.blender.org
mtllib walls.mtl
o Plane
v -16.000000 16.000000 -1.182319
v -16.000000 -16.000000 -1.182319
v 16.000000 16.000000 -1.182319
v 16.000000 -16.000000 -1.182319
v 17.224304 17.224304 5.649838
v -17.224304 17.224304 5.649838
v -17.224304 -17.224304 5.649838
v 17.224304 -17.224304 5.649838
v 17.511030 17.511030 6.616702
v -17.511030 17.511030 6.616702
v -17.511030 -17.511030 6.616702
v 17.511030 -17.511030 6.616702
v 18.413185 18.413185 7.628951
v -18.413185 18.413185 7.628951
v -18.413185 -18.413185 7.628951
v 18.413185 -18.413185 7.628951
v 20.805817 20.805817 8.443811
v -20.805817 20.805817 8.443811
v -20.805817 -20.805817 8.443811
v 20.805817 -20.805817 8.443811
v -16.000000 12.000000 -1.182319
v -16.000000 8.000000 -1.182319
v -16.000000 4.000000 -1.182319
v -16.000000 0.000000 -1.182319
v -16.000000 -4.000000 -1.182319
v -16.000000 -8.000000 -1.182319
v -16.000000 -12.000000 -1.182319
v -17.224304 12.918228 5.649838
v -17.224304 8.612152 5.649838
v -17.224304 4.306076 5.649838
v -17.224304 0.000000 5.649838
v -17.224304 -4.306076 5.649838
v -17.224304 -8.612152 5.649838
v -17.224304 -12.918228 5.649838
v -17.511030 13.133272 6.616702
v -17.511030 8.755514 6.616702
v -17.511030 4.377757 6.616702
v -17.511030 -0.000001 6.616702
v -17.511030 -4.377758 6.616702
v -17.511030 -8.755516 6.616702
v -17.511030 -13.133273 6.616702
v -18.413185 13.809889 7.628951
v -18.413185 9.206593 7.628951
v -18.413185 4.603296 7.628951
v -18.413185 0.000000 7.628951
v -18.413185 -4.603296 7.628951
v -18.413185 -9.206593 7.628951
v -18.413185 -13.809889 7.628951
v -20.805817 15.604362 8.443811
v -20.805817 10.402908 8.443811
v -20.805817 5.201454 8.443811
v -20.805817 0.000000 8.443811
v -20.805817 -5.201454 8.443811
v -20.805817 -10.402908 8.443811
v -20.805817 -15.604362 8.443811
v -12.000000 -16.000000 -1.182319
v -8.000000 -16.000000 -1.182319
v -4.000000 -16.000000 -1.182319
v 0.000000 -16.000000 -1.182319
v 4.000000 -16.000000 -1.182319
v 8.000000 -16.000000 -1.182319
v 12.000000 -16.000000 -1.182319
v -12.918228 -17.224304 5.649838
v -8.612152 -17.224304 5.649838
v -4.306076 -17.224304 5.649838
v 0.000000 -17.224304 5.649838
v 4.306076 -17.224304 5.649838
v 8.612152 -17.224304 5.649838
v 12.918228 -17.224304 5.649838
v -13.133272 -17.511030 6.616702
v -8.755514 -17.511030 6.616702
v -4.377757 -17.511030 6.616702
v 0.000001 -17.511030 6.616702
v 4.377758 -17.511030 6.616702
v 8.755516 -17.511030 6.616702
v 13.133273 -17.511030 6.616702
v -13.809889 -18.413185 7.628951
v -9.206593 -18.413185 7.628951
v -4.603296 -18.413185 7.628951
v 0.000000 -18.413185 7.628951
v 4.603296 -18.413185 7.628951
v 9.206593 -18.413185 7.628951
v 13.809889 -18.413185 7.628951
v -15.604362 -20.805817 8.443811
v -10.402908 -20.805817 8.443811
v -5.201454 -20.805817 8.443811
v 0.000000 -20.805817 8.443811
v 5.201454 -20.805817 8.443811
v 10.402908 -20.805817 8.443811
v 15.604362 -20.805817 8.443811
v 16.000000 -12.000000 -1.182319
v 16.000000 -8.000000 -1.182319
v 16.000000 -4.000000 -1.182319
v 16.000000 0.000000 -1.182319
v 16.000000 4.000000 -1.182319
v 16.000000 8.000000 -1.182319
v 16.000000 12.000000 -1.182319
v 17.224304 -12.918228 5.649838
v 17.224304 -8.612152 5.649838
v 17.224304 -4.306076 5.649838
v 17.224304 0.000000 5.649838
v 17.224304 4.306076 5.649838
v 17.224304 8.612152 5.649838
v 17.224304 12.918228 5.649838
v 17.511030 -13.133272 6.616702
v 17.511030 -8.755514 6.616702
v 17.511030 -4.377757 6.616702
v 17.511030 0.000001 6.616702
v 17.511030 4.377758 6.616702
v 17.511030 8.755516 6.616702
v 17.511030 13.133273 6.616702
v 18.413185 -13.809889 7.628951
v 18.413185 -9.206593 7.628951
v 18.413185 -4.603296 7.628951
v 18.413185 0.000000 7.628951
v 18.413185 4.603296 7.628951
v 18.413185 9.206593 7.628951
v 18.413185 13.809889 7.628951
v 20.805817 -15.604362 8.443811
v 20.805817 -10.402908 8.443811
v 20.805817 -5.201454 8.443811
v 20.805817 0.000000 8.443811
v 20.805817 5.201454 8.443811
v 20.805817 10.402908 8.443811
v 20.805817 15.604362 8.443811
v 12.000000 16.000000 -1.182319
v 8.000000 16.000000 -1.182319
v 4.000000 16.000000 -1.182319
v 0.000000 16.000000 -1.182319
v -4.000000 16.000000 -1.182319
v -8.000000 16.000000 -1.182319
v -12.000000 16.000000 -1.182319
v 12.918228 17.224304 5.649838
v 8.612152 17.224304 5.649838
v 4.306076 17.224304 5.649838
v 0.000000 17.224304 5.649838
v -4.306076 17.224304 5.649838
v -8.612152 17.224304 5.649838
v -12.918228 17.224304 5.649838
v 13.133272 17.511030 6.616702
v 8.755514 17.511030 6.616702
v 4.377757 17.511030 6.616702
v -0.000001 17.511030 6.616702
v -4.377758 17.511030 6.616702
v -8.755516 17.511030 6.616702
v -13.133273 17.511030 6.616702
v 13.809889 18.413185 7.628951
v 9.206593 18.413185 7.628951
v 4.603296 18.413185 7.628951
v 0.000000 18.413185 7.628951
v -4.603296 18.413185 7.628951
v -9.206593 18.413185 7.628951
v -13.809889 18.413185 7.628951
v 15.604362 20.805817 8.443811
v 10.402908 20.805817 8.443811
v 5.201454 20.805817 8.443811
v 0.000000 20.805817 8.443811
v -5.201454 20.805817 8.443811
v -10.402908 20.805817 8.443811
v -15.604362 20.805817 8.443811
v 15.600000 16.000000 -1.182319
v 16.793697 17.224304 5.649838
v 17.073254 17.511030 6.616702
v 17.952856 18.413185 7.628951
v 20.285671 20.805817 8.443811
v 16.000000 15.600000 -1.182319
v 17.224304 16.793697 5.649838
v 17.511030 17.073254 6.616702
v 18.413185 17.952856 7.628951
v 20.805817 20.285671 8.443811
v 15.600000 -16.000000 -1.182319
v 16.793697 -17.224304 5.649838
v 17.073254 -17.511030 6.616702
v 17.952856 -18.413185 7.628951
v 20.285671 -20.805817 8.443811
v 16.000000 -15.600000 -1.182319
v 17.224304 -16.793697 5.649838
v 17.511030 -17.073254 6.616702
v 18.413185 -17.952856 7.628951
v 20.805817 -20.285671 8.443811
v -15.600000 -16.000000 -1.182319
v -16.793697 -17.224304 5.649838
v -17.073254 -17.511030 6.616702
v -17.952856 -18.413185 7.628951
v -20.285671 -20.805817 8.443811
v -16.000000 -15.600000 -1.182319
v -17.224304 -16.793697 5.649838
v -17.511030 -17.073254 6.616702
v -18.413185 -17.952856 7.628951
v -20.805817 -20.285671 8.443811
v -16.000000 15.600000 -1.182319
v -17.224304 16.793697 5.649838
v -17.511030 17.073254 6.616702
v -18.413185 17.952856 7.628951
v -20.805817 20.285671 8.443811
v -15.600000 16.000000 -1.182319
v -16.793697 17.224304 5.649838
v -17.073254 17.511030 6.616702
v -17.952856 18.413185 7.628951
v -20.285671 20.805817 8.443811
vn -0.0000 0.8737 0.4865
vn -0.6681 0.6681 0.3277
vn -0.0000 0.9730 0.2307
vn -0.0000 -0.8737 0.4865
vn 0.6681 -0.6681 0.3277
vn -0.0000 -0.9730 0.2307
vn -0.6854 0.6854 0.2457
vn -0.0000 0.9843 0.1764
vn 0.6854 -0.6854 0.2457
vn -0.0000 -0.9843 0.1764
vn -0.9730 -0.0000 0.2307
vn -0.6854 -0.6854 0.2457
vn -0.9843 -0.0000 0.1764
vn 0.9730 -0.0000 0.2307
vn 0.6854 0.6854 0.2457
vn 0.9843 -0.0000 0.1764
vn -0.8737 -0.0000 0.4865
vn -0.6681 -0.6681 0.3277
vn 0.8737 -0.0000 0.4865
vn 0.6681 0.6681 0.3277
vn -0.5527 -0.0000 0.8334
vn -0.5270 -0.5270 0.6667
vn 0.5527 -0.0000 0.8334
vn 0.5270 0.5270 0.6667
vn -0.0000 0.5527 0.8334
vn -0.5270 0.5270 0.6667
vn -0.0000 -0.5527 0.8334
vn 0.5270 -0.5270 0.6667
vn -0.0000 0.3224 0.9466
vn -0.2438 0.2438 0.9387
vn -0.0000 -0.3224 0.9466
vn 0.2438 -0.2438 0.9387
vn -0.3224 -0.0000 0.9466
vn -0.2438 -0.2438 0.9387
vn 0.3224 -0.0000 0.9466
vn 0.2438 0.2438 0.9387
vn -0.1656 0.1656 0.9722
vn 0.1656 -0.1656 0.9722
vn -0.1656 -0.1656 0.9722
vn 0.1656 0.1656 0.9722
vt 0.417887 0.078928
vt 0.396613 0.075742
vt 0.396613 0.084826
vt 0.582113 0.799274
vt 0.603388 0.802461
vt 0.603388 0.793377
vt 0.250187 0.101570
vt 0.250187 0.110008
vt 0.749813 0.776633
vt 0.749813 0.768195
vt 0.853387 0.793377
vt 0.999813 0.776633
vt 0.999813 0.768195
vt 0.103387 0.793377
vt 0.249813 0.776633
vt 0.249813 0.768195
vt 0.832113 0.799274
vt 0.853387 0.802461
vt 0.082113 0.799275
vt 0.103387 0.802461
vt 0.803509 0.817830
vt 0.832113 0.808510
vt 0.053509 0.817830
vt 0.082113 0.808510
vt 0.446491 0.060373
vt 0.417887 0.069693
vt 0.553509 0.817830
vt 0.582113 0.808510
vt 0.499813 0.011160
vt 0.446491 0.050662
vt 0.500187 0.867043
vt 0.553509 0.827541
vt 0.750187 0.867043
vt 0.803509 0.827541
vt 0.000187 0.867043
vt 0.053509 0.827541
vt 0.053509 0.060373
vt 0.000187 0.109916
vt 0.053509 0.147772
vt 0.000187 0.219644
vt 0.053509 0.244882
vt 0.000187 0.329373
vt 0.053509 0.341992
vt 0.000187 0.439101
vt 0.053509 0.439101
vt 0.053509 0.536211
vt 0.000187 0.548830
vt 0.053509 0.633321
vt 0.000187 0.658559
vt 0.053509 0.730431
vt 0.082113 0.078928
vt 0.082113 0.162045
vt 0.082113 0.254397
vt 0.082113 0.346749
vt 0.082113 0.439102
vt 0.082113 0.531454
vt 0.082113 0.623806
vt 0.082113 0.716158
vt 0.103388 0.084826
vt 0.103387 0.166582
vt 0.103387 0.257422
vt 0.103387 0.348262
vt 0.103387 0.439101
vt 0.103387 0.529941
vt 0.103387 0.620781
vt 0.103387 0.711621
vt 0.249813 0.110008
vt 0.249813 0.185953
vt 0.249813 0.270336
vt 0.249813 0.354719
vt 0.249813 0.439101
vt 0.249813 0.523484
vt 0.249813 0.607867
vt 0.249813 0.692250
vt 0.446491 0.817830
vt 0.499813 0.768287
vt 0.446492 0.730431
vt 0.499813 0.658559
vt 0.446492 0.633321
vt 0.499813 0.548830
vt 0.446492 0.536211
vt 0.499813 0.439101
vt 0.446492 0.439101
vt 0.446492 0.341992
vt 0.499813 0.329373
vt 0.446492 0.244882
vt 0.499813 0.219644
vt 0.446491 0.147772
vt 0.417887 0.799274
vt 0.417887 0.716158
vt 0.417887 0.623806
vt 0.417887 0.531453
vt 0.417887 0.439101
vt 0.417887 0.346749
vt 0.417887 0.254397
vt 0.417887 0.162045
vt 0.250187 0.768195
vt 0.396613 0.711621
vt 0.250187 0.692250
vt 0.396613 0.620781
vt 0.250187 0.607867
vt 0.396613 0.529941
vt 0.250187 0.523484
vt 0.396613 0.439101
vt 0.250187 0.439101
vt 0.250187 0.354719
vt 0.396613 0.348262
vt 0.250187 0.270336
vt 0.396613 0.257422
vt 0.250187 0.185953
vt 0.396613 0.793377
vt 0.396613 0.166582
vt 0.803509 0.060373
vt 0.750187 0.109916
vt 0.803509 0.147772
vt 0.750187 0.219644
vt 0.803509 0.244882
vt 0.750187 0.329373
vt 0.803509 0.341992
vt 0.750187 0.439101
vt 0.803509 0.439101
vt 0.803509 0.536211
vt 0.750187 0.548830
vt 0.803509 0.633321
vt 0.750187 0.658559
vt 0.803509 0.730431
vt 0.832113 0.078928
vt 0.832113 0.162045
vt 0.832113 0.254397
vt 0.832113 0.346749
vt 0.832113 0.439101
vt 0.832113 0.531453
vt 0.832113 0.623806
vt 0.832113 0.716158
vt 0.853387 0.084826
vt 0.853387 0.166582
vt 0.853387 0.257422
vt 0.853387 0.348262
vt 0.853387 0.439101
vt 0.853387 0.529941
vt 0.853387 0.620781
vt 0.853387 0.711621
vt 0.999813 0.110008
vt 0.999813 0.185953
vt 0.999813 0.270335
vt 0.999813 0.354718
vt 0.999813 0.439101
vt 0.999813 0.523484
vt 0.999813 0.607867
vt 0.999813 0.692250
vt 0.553509 0.060373
vt 0.500187 0.109916
vt 0.553509 0.147772
vt 0.500187 0.219644
vt 0.553509 0.244882
vt 0.500187 0.329373
vt 0.553509 0.341991
vt 0.500187 0.439101
vt 0.553509 0.439101
vt 0.553509 0.536211
vt 0.500187 0.548830
vt 0.553509 0.633321
vt 0.500187 0.658559
vt 0.553509 0.730431
vt 0.582113 0.078928
vt 0.582113 0.162045
vt 0.582113 0.254397
vt 0.582113 0.346749
vt 0.582113 0.439101
vt 0.582113 0.531453
vt 0.582113 0.623806
vt 0.582113 0.716158
vt 0.749813 0.110008
vt 0.603387 0.166582
vt 0.749813 0.185953
vt 0.603387 0.257422
vt 0.749813 0.270335
vt 0.603388 0.348262
vt 0.749813 0.354718
vt 0.603388 0.439101
vt 0.749813 0.439101
vt 0.749813 0.523484
vt 0.603387 0.529941
vt 0.749813 0.607867
vt 0.603387 0.620781
vt 0.749813 0.692250
vt 0.603388 0.084826
vt 0.603387 0.711621
vt 0.603388 0.075742
vt 0.749813 0.101570
vt 0.582113 0.069693
vt 0.553509 0.050662
vt 0.500187 0.011160
vt 0.750187 0.768287
vt 0.499813 0.109916
vt 0.999813 0.101570
vt 0.853387 0.075742
vt 0.832113 0.069693
vt 0.803509 0.050662
vt 0.750187 0.011160
vt 0.396613 0.802461
vt 0.250187 0.776633
vt 0.417887 0.808510
vt 0.446491 0.827541
vt 0.499813 0.867043
vt 0.000187 0.768287
vt 0.249813 0.101570
vt 0.103388 0.075742
vt 0.082113 0.069693
vt 0.053509 0.050662
vt 0.000187 0.011160
vt 0.500187 0.768287
vt 0.499813 0.000187
vt 0.500187 0.878016
vt 0.750187 0.878016
vt 0.000187 0.878016
vt 0.500187 0.000187
vt 0.750187 0.000187
vt 0.499813 0.878016
vt 0.000187 0.000187
s 1
usemtl Material.001
f 173/1/1 8/2/2 172/3/3
f 198/4/4 6/5/5 197/6/6
f 172/3/3 4/7/7 171/8/8
f 197/6/6 1/9/9 196/10/10
f 167/11/11 3/12/12 166/13/13
f 187/14/14 2/15/15 186/16/16
f 168/17/17 5/18/18 167/11/11
f 188/19/19 7/20/20 187/14/14
f 169/21/21 9/22/22 168/17/17
f 189/23/23 11/24/24 188/19/19
f 174/25/25 12/26/26 173/1/1
f 199/27/27 10/28/28 198/4/4
f 175/29/29 16/30/30 174/25/25
f 200/31/31 14/32/32 199/27/27
f 170/33/33 13/34/34 169/21/21
f 190/35/35 15/36/36 189/23/23
f 194/37/23 49/38/35 42/39/23
f 42/39/23 50/40/35 43/41/23
f 43/41/23 51/42/35 44/43/23
f 44/43/23 52/44/35 45/45/23
f 52/44/35 46/46/23 45/45/23
f 53/47/35 47/48/23 46/46/23
f 54/49/35 48/50/23 47/48/23
f 193/51/19 42/39/23 35/52/19
f 35/52/19 43/41/23 36/53/19
f 36/53/19 44/43/23 37/54/19
f 37/54/19 45/45/23 38/55/19
f 45/45/23 39/56/19 38/55/19
f 46/46/23 40/57/19 39/56/19
f 47/48/23 41/58/19 40/57/19
f 192/59/14 35/52/19 28/60/14
f 28/60/14 36/53/19 29/61/14
f 29/61/14 37/54/19 30/62/14
f 30/62/14 38/55/19 31/63/14
f 38/55/19 32/64/14 31/63/14
f 39/56/19 33/65/14 32/64/14
f 40/57/19 34/66/14 33/65/14
f 191/67/16 28/60/14 21/68/16
f 21/68/16 29/61/14 22/69/16
f 22/69/16 30/62/14 23/70/16
f 23/70/16 31/63/14 24/71/16
f 31/63/14 25/72/16 24/71/16
f 32/64/14 26/73/16 25/72/16
f 33/65/14 27/74/16 26/73/16
f 184/75/25 84/76/29 77/77/25
f 77/77/25 85/78/29 78/79/25
f 78/79/25 86/80/29 79/81/25
f 79/81/25 87/82/29 80/83/25
f 87/82/29 81/84/25 80/83/25
f 88/85/29 82/86/25 81/84/25
f 89/87/29 83/88/25 82/86/25
f 183/89/1 77/77/25 70/90/1
f 70/90/1 78/79/25 71/91/1
f 71/91/1 79/81/25 72/92/1
f 72/92/1 80/83/25 73/93/1
f 80/83/25 74/94/1 73/93/1
f 81/84/25 75/95/1 74/94/1
f 82/86/25 76/96/1 75/95/1
f 181/97/8 63/98/3 56/99/8
f 56/99/8 64/100/3 57/101/8
f 57/101/8 65/102/3 58/103/8
f 58/103/8 66/104/3 59/105/8
f 66/104/3 60/106/8 59/105/8
f 67/107/3 61/108/8 60/106/8
f 68/109/3 62/110/8 61/108/8
f 182/111/3 70/90/1 63/98/3
f 63/98/3 71/91/1 64/100/3
f 64/100/3 72/92/1 65/102/3
f 65/102/3 73/93/1 66/104/3
f 73/93/1 67/107/3 66/104/3
f 74/94/1 68/109/3 67/107/3
f 75/95/1 69/112/3 68/109/3
f 179/113/21 119/114/33 112/115/21
f 112/115/21 120/116/33 113/117/21
f 113/117/21 121/118/33 114/119/21
f 114/119/21 122/120/33 115/121/21
f 122/120/33 116/122/21 115/121/21
f 123/123/33 117/124/21 116/122/21
f 124/125/33 118/126/21 117/124/21
f 178/127/17 112/115/21 105/128/17
f 105/128/17 113/117/21 106/129/17
f 106/129/17 114/119/21 107/130/17
f 107/130/17 115/121/21 108/131/17
f 115/121/21 109/132/17 108/131/17
f 116/122/21 110/133/17 109/132/17
f 117/124/21 111/134/17 110/133/17
f 177/135/11 105/128/17 98/136/11
f 98/136/11 106/129/17 99/137/11
f 99/137/11 107/130/17 100/138/11
f 100/138/11 108/131/17 101/139/11
f 108/131/17 102/140/11 101/139/11
f 109/132/17 103/141/11 102/140/11
f 110/133/17 104/142/11 103/141/11
f 176/143/13 98/136/11 91/144/13
f 91/144/13 99/137/11 92/145/13
f 92/145/13 100/138/11 93/146/13
f 93/146/13 101/139/11 94/147/13
f 101/139/11 95/148/13 94/147/13
f 102/140/11 96/149/13 95/148/13
f 103/141/11 97/150/13 96/149/13
f 164/151/27 154/152/31 147/153/27
f 147/153/27 155/154/31 148/155/27
f 148/155/27 156/156/31 149/157/27
f 149/157/27 157/158/31 150/159/27
f 157/158/31 151/160/27 150/159/27
f 158/161/31 152/162/27 151/160/27
f 159/163/31 153/164/27 152/162/27
f 163/165/4 147/153/27 140/166/4
f 140/166/4 148/155/27 141/167/4
f 141/167/4 149/157/27 142/168/4
f 142/168/4 150/159/27 143/169/4
f 150/159/27 144/170/4 143/169/4
f 151/160/27 145/171/4 144/170/4
f 152/162/27 146/172/4 145/171/4
f 161/173/10 133/174/6 126/175/10
f 126/175/10 134/176/6 127/177/10
f 127/177/10 135/178/6 128/179/10
f 128/179/10 136/180/6 129/181/10
f 136/180/6 130/182/10 129/181/10
f 137/183/6 131/184/10 130/182/10
f 138/185/6 132/186/10 131/184/10
f 162/187/6 140/166/4 133/174/6
f 133/174/6 141/167/4 134/176/6
f 134/176/6 142/168/4 135/178/6
f 135/178/6 143/169/4 136/180/6
f 143/169/4 137/183/6 136/180/6
f 144/170/4 138/185/6 137/183/6
f 145/171/4 139/188/6 138/185/6
f 5/189/18 163/165/4 162/187/6
f 3/190/12 162/187/6 161/173/10
f 9/191/22 164/151/27 163/165/4
f 13/192/34 165/193/31 164/151/27
f 125/194/33 169/21/21 118/126/21
f 118/126/21 168/17/17 111/134/17
f 111/134/17 167/11/11 104/142/11
f 104/142/11 166/13/13 97/150/13
f 90/195/29 174/25/25 83/88/25
f 83/88/25 173/1/1 76/96/1
f 69/112/3 171/8/8 62/110/8
f 76/96/1 172/3/3 69/112/3
f 4/196/7 177/135/11 176/143/13
f 8/197/2 178/127/17 177/135/11
f 12/198/26 179/113/21 178/127/17
f 16/199/30 180/200/33 179/113/21
f 7/201/20 183/89/1 182/111/3
f 2/202/15 182/111/3 181/97/8
f 11/203/24 184/75/25 183/89/1
f 15/204/36 185/205/29 184/75/25
f 55/206/35 189/23/23 48/50/23
f 48/50/23 188/19/19 41/58/19
f 41/58/19 187/14/14 34/66/14
f 34/66/14 186/16/16 27/74/16
f 1/207/9 192/59/14 191/67/16
f 6/208/5 193/51/19 192/59/14
f 10/209/28 194/37/23 193/51/19
f 14/210/32 195/211/35 194/37/23
f 160/212/31 199/27/27 153/164/27
f 153/164/27 198/4/4 146/172/4
f 139/188/6 196/10/10 132/186/10
f 146/172/4 197/6/6 139/188/6
f 173/1/1 12/26/26 8/2/2
f 198/4/4 10/28/28 6/5/5
f 172/3/3 8/2/2 4/7/7
f 197/6/6 6/5/5 1/9/9
f 167/11/11 5/18/18 3/12/12
f 187/14/14 7/20/20 2/15/15
f 168/17/17 9/22/22 5/18/18
f 188/19/19 11/24/24 7/20/20
f 169/21/21 13/34/34 9/22/22
f 189/23/23 15/36/36 11/24/24
f 174/25/25 16/30/30 12/26/26
f 199/27/27 14/32/32 10/28/28
f 175/29/29 20/213/37 16/30/30
f 200/31/31 18/214/38 14/32/32
f 170/33/33 17/215/39 13/34/34
f 190/35/35 19/216/40 15/36/36
f 194/37/23 195/211/35 49/38/35
f 42/39/23 49/38/35 50/40/35
f 43/41/23 50/40/35 51/42/35
f 44/43/23 51/42/35 52/44/35
f 52/44/35 53/47/35 46/46/23
f 53/47/35 54/49/35 47/48/23
f 54/49/35 55/206/35 48/50/23
f 193/51/19 194/37/23 42/39/23
f 35/52/19 42/39/23 43/41/23
f 36/53/19 43/41/23 44/43/23
f 37/54/19 44/43/23 45/45/23
f 45/45/23 46/46/23 39/56/19
f 46/46/23 47/48/23 40/57/19
f 47/48/23 48/50/23 41/58/19
f 192/59/14 193/51/19 35/52/19
f 28/60/14 35/52/19 36/53/19
f 29/61/14 36/53/19 37/54/19
f 30/62/14 37/54/19 38/55/19
f 38/55/19 39/56/19 32/64/14
f 39/56/19 40/57/19 33/65/14
f 40/57/19 41/58/19 34/66/14
f 191/67/16 192/59/14 28/60/14
f 21/68/16 28/60/14 29/61/14
f 22/69/16 29/61/14 30/62/14
f 23/70/16 30/62/14 31/63/14
f 31/63/14 32/64/14 25/72/16
f 32/64/14 33/65/14 26/73/16
f 33/65/14 34/66/14 27/74/16
f 184/75/25 185/205/29 84/76/29
f 77/77/25 84/76/29 85/78/29
f 78/79/25 85/78/29 86/80/29
f 79/81/25 86/80/29 87/82/29
f 87/82/29 88/85/29 81/84/25
f 88/85/29 89/87/29 82/86/25
f 89/87/29 90/195/29 83/88/25
f 183/89/1 184/75/25 77/77/25
f 70/90/1 77/77/25 78/79/25
f 71/91/1 78/79/25 79/81/25
f 72/92/1 79/81/25 80/83/25
f 80/83/25 81/84/25 74/94/1
f 81/84/25 82/86/25 75/95/1
f 82/86/25 83/88/25 76/96/1
f 181/97/8 182/111/3 63/98/3
f 56/99/8 63/98/3 64/100/3
f 57/101/8 64/100/3 65/102/3
f 58/103/8 65/102/3 66/104/3
f 66/104/3 67/107/3 60/106/8
f 67/107/3 68/109/3 61/108/8
f 68/109/3 69/112/3 62/110/8
f 182/111/3 183/89/1 70/90/1
f 63/98/3 70/90/1 71/91/1
f 64/100/3 71/91/1 72/92/1
f 65/102/3 72/92/1 73/93/1
f 73/93/1 74/94/1 67/107/3
f 74/94/1 75/95/1 68/109/3
f 75/95/1 76/96/1 69/112/3
f 179/113/21 180/200/33 119/114/33
f 112/115/21 119/114/33 120/116/33
f 113/117/21 120/116/33 121/118/33
f 114/119/21 121/118/33 122/120/33
f 122/120/33 123/123/33 116/122/21
f 123/123/33 124/125/33 117/124/21
f 124/125/33 125/194/33 118/126/21
f 178/127/17 179/113/21 112/115/21
f 105/128/17 112/115/21 113/117/21
f 106/129/17 113/117/21 114/119/21
f 107/130/17 114/119/21 115/121/21
f 115/121/21 116/122/21 109/132/17
f 116/122/21 117/124/21 110/133/17
f 117/124/21 118/126/21 111/134/17
f 177/135/11 178/127/17 105/128/17
f 98/136/11 105/128/17 106/129/17
f 99/137/11 106/129/17 107/130/17
f 100/138/11 107/130/17 108/131/17
f 108/131/17 109/132/17 102/140/11
f 109/132/17 110/133/17 103/141/11
f 110/133/17 111/134/17 104/142/11
f 176/143/13 177/135/11 98/136/11
f 91/144/13 98/136/11 99/137/11
f 92/145/13 99/137/11 100/138/11
f 93/146/13 100/138/11 101/139/11
f 101/139/11 102/140/11 95/148/13
f 102/140/11 103/141/11 96/149/13
f 103/141/11 104/142/11 97/150/13
f 164/151/27 165/193/31 154/152/31
f 147/153/27 154/152/31 155/154/31
f 148/155/27 155/154/31 156/156/31
f 149/157/27 156/156/31 157/158/31
f 157/158/31 158/161/31 151/160/27
f 158/161/31 159/163/31 152/162/27
f 159/163/31 160/212/31 153/164/27
f 163/165/4 164/151/27 147/153/27
f 140/166/4 147/153/27 148/155/27
f 141/167/4 148/155/27 149/157/27
f 142/168/4 149/157/27 150/159/27
f 150/159/27 151/160/27 144/170/4
f 151/160/27 152/162/27 145/171/4
f 152/162/27 153/164/27 146/172/4
f 161/173/10 162/187/6 133/174/6
f 126/175/10 133/174/6 134/176/6
f 127/177/10 134/176/6 135/178/6
f 128/179/10 135/178/6 136/180/6
f 136/180/6 137/183/6 130/182/10
f 137/183/6 138/185/6 131/184/10
f 138/185/6 139/188/6 132/186/10
f 162/187/6 163/165/4 140/166/4
f 133/174/6 140/166/4 141/167/4
f 134/176/6 141/167/4 142/168/4
f 135/178/6 142/168/4 143/169/4
f 143/169/4 144/170/4 137/183/6
f 144/170/4 145/171/4 138/185/6
f 145/171/4 146/172/4 139/188/6
f 5/189/18 9/191/22 163/165/4
f 3/190/12 5/189/18 162/187/6
f 9/191/22 13/192/34 164/151/27
f 13/192/34 17/217/39 165/193/31
f 125/194/33 170/33/33 169/21/21
f 118/126/21 169/21/21 168/17/17
f 111/134/17 168/17/17 167/11/11
f 104/142/11 167/11/11 166/13/13
f 90/195/29 175/29/29 174/25/25
f 83/88/25 174/25/25 173/1/1
f 69/112/3 172/3/3 171/8/8
f 76/96/1 173/1/1 172/3/3
f 4/196/7 8/197/2 177/135/11
f 8/197/2 12/198/26 178/127/17
f 12/198/26 16/199/30 179/113/21
f 16/199/30 20/218/37 180/200/33
f 7/201/20 11/203/24 183/89/1
f 2/202/15 7/201/20 182/111/3
f 11/203/24 15/204/36 184/75/25
f 15/204/36 19/219/40 185/205/29
f 55/206/35 190/35/35 189/23/23
f 48/50/23 189/23/23 188/19/19
f 41/58/19 188/19/19 187/14/14
f 34/66/14 187/14/14 186/16/16
f 1/207/9 6/208/5 192/59/14
f 6/208/5 10/209/28 193/51/19
f 10/209/28 14/210/32 194/37/23
f 14/210/32 18/220/38 195/211/35
f 160/212/31 200/31/31 199/27/27
f 153/164/27 199/27/27 198/4/4
f 139/188/6 197/6/6 196/10/10
f 146/172/4 198/4/4 197/6/6
